<svg width="99" height="40" viewBox="0 0 99 40" fill="none" xmlns="http://www.w3.org/2000/svg">
<path d="M26.6414 34.6485C26.5688 33.2697 26.3511 32.0624 26.4633 30.8881C26.8261 27.1936 29.6036 24.1786 33.3509 23.8158C38.3648 23.3276 43.4052 23.1626 48.4389 22.8723C54.2841 22.5359 60.1359 22.2192 65.9548 21.896C66.4891 19.1647 65.427 17.4428 62.8408 17.1327C58.4338 16.5983 54.0202 16.0903 49.5934 15.8726C48.4125 15.8132 46.9941 16.6181 46.0177 17.4296C44.4871 18.6897 42.9565 19.1053 41.8152 18.0497C40.6343 16.9546 40.6871 15.3712 42.0329 13.8076C44.4541 11.0038 47.5681 10.0406 51.1834 10.4694C53.1362 10.7003 55.1022 10.885 57.1935 11.1094C57.1935 9.50621 57.1935 8.00202 57.1935 6.18116C56.4942 6.69575 55.9005 7.09819 55.3397 7.54021C54.0532 8.56279 52.5028 8.51001 51.5133 7.38847C50.5896 6.3461 50.7018 4.81553 51.7969 3.69398C54.0202 1.42451 56.9099 0.566854 59.8918 0.0390698C61.4554 -0.238017 62.6297 0.989079 62.6891 2.75716C62.7683 5.00024 62.7155 7.24993 62.7221 9.49301C62.7221 10.1461 62.7221 10.7927 62.7221 11.525C68.3298 12.3826 71.4437 15.4504 71.6152 21.3616C74.7754 21.4605 77.4803 22.5491 79.2021 25.3595C80.9043 28.137 80.449 31.1454 80.0664 34.3385C80.6074 34.3649 81.1747 34.411 81.7421 34.411C85.9644 34.4176 90.1801 34.411 94.4023 34.4176C94.8378 34.4176 95.2864 34.3913 95.7152 34.4638C97.0808 34.6881 98.0573 35.8559 98.077 37.2149C98.0968 38.6003 97.1468 39.6889 95.6888 39.8934C95.1478 39.966 94.5937 39.933 94.0461 39.933C64.0086 39.933 33.9776 39.933 3.94007 39.933C3.55743 39.933 3.17479 39.9462 2.79214 39.9264C0.991077 39.8142 -0.0446997 38.7785 0.00148145 37.1555C0.0476626 35.6051 1.05705 34.6683 2.83832 34.6485C5.80051 34.6156 8.75611 34.6354 11.7183 34.6354C16.1055 34.6354 20.4861 34.6354 24.8733 34.6354C25.4737 34.6485 26.0542 34.6485 26.6414 34.6485ZM53.4397 34.4176C59.5224 34.4176 65.6117 34.4044 71.6944 34.4308C73.1458 34.4374 74.3069 34.0416 74.8875 32.6298C76.2927 29.219 74.551 26.6394 70.8895 26.8307C59.0144 27.4443 47.1392 28.1172 35.2641 28.7571C33.021 28.8759 31.7939 29.8919 31.8203 31.6402C31.8467 33.3885 33.12 34.411 35.3499 34.411C41.3798 34.4242 47.4097 34.4176 53.4397 34.4176Z" fill="#006960"/>
</svg>
